<?xml version="1.0" encoding="utf-8"?>
<!-- Generator: Fusion 360, Shaper Origin Export Add-In, Version 1.6.9  -->
<svg xmlns="http://www.w3.org/2000/svg" xmlns:xlink="http://www.w3.org/1999/xlink" xmlns:shaper="http://www.shapertools.com/namespaces/shaper" shaper:fusionaddin="version:1.6.9" width="3.15cm" height="0.63cm" version="1.1" x="0cm" y="0cm" viewBox="0 0 3.15 0.63" enable-background="new 0 0 3.15 0.63" xml:space="preserve"><path d="M0.525,0.2859588 L0.715,0.2859588 0.715,0.315 0.845,0.315 0.845,0.315 0.8551105,0.3000925 0.8652323,0.2859802 0.8753655,0.2726688 0.8855102,0.2601674 0.8956666,0.2484887 0.9058349,0.2376485 0.9160154,0.2276654 0.9262084,0.2185604 0.9364142,0.2103564 0.9466332,0.2030773 0.9568657,0.1967475 0.967112,0.1913911 0.9773725,0.1870308 0.9876474,0.1836869 0.9979371,0.1813764 1.0082416,0.180111 1.018561,0.1798959 1.0288954,0.1807288 1.0392445,0.1826005 1.0496082,0.1854967 1.0599862,0.1893988 1.0703782,0.1942852 1.0807838,0.200133 1.0912028,0.2069184 1.1016348,0.2146179 1.1120795,0.2232092 1.1225366,0.2326714 1.1330058,0.242986 1.1434869,0.2541372 1.1539797,0.2661122 1.1644841,0.2789017 1.175,0.2925 1.275,0.2925 1.575,0.05 1.575,-0.05 1.275,-0.2925 1.175,-0.2925 1.175,-0.2925 1.1644841,-0.2789017 1.1539797,-0.2661122 1.1434869,-0.2541372 1.1330058,-0.242986 1.1225366,-0.2326714 1.1120795,-0.2232092 1.1016348,-0.2146179 1.0912028,-0.2069184 1.0807838,-0.200133 1.0703782,-0.1942852 1.0599862,-0.1893988 1.0496082,-0.1854967 1.0392445,-0.1826005 1.0288954,-0.1807288 1.018561,-0.1798959 1.0082416,-0.180111 0.9979371,-0.1813764 0.9876474,-0.1836869 0.9773725,-0.1870308 0.967112,-0.1913911 0.9568657,-0.1967475 0.9466332,-0.2030773 0.9364142,-0.2103564 0.9262084,-0.2185604 0.9160154,-0.2276654 0.9058349,-0.2376485 0.8956666,-0.2484887 0.8855102,-0.2601674 0.8753655,-0.2726688 0.8652323,-0.2859802 0.8551105,-0.3000925 0.845,-0.315 0.715,-0.315 0.715,-0.2859588 0.525,-0.2859588 0.525,-0.315 -1.575,-0.315 -1.575,0.315 0.525,0.315 0.525,0.2859588z" transform="matrix(1,0,0,-1,1.575,0.315)" fill="rgb(0,0,0)" shaper:cutDepth="0.001" stroke-linecap="round" stroke-linejoin="round" /></svg>