<?xml version="1.0" encoding="utf-8"?>
<!-- Generator: Fusion 360, Shaper Origin Export Add-In, Version 1.6.9  -->
<svg xmlns="http://www.w3.org/2000/svg" xmlns:xlink="http://www.w3.org/1999/xlink" xmlns:shaper="http://www.shapertools.com/namespaces/shaper" shaper:fusionaddin="version:1.6.9" width="3.15cm" height="0.315cm" version="1.1" x="0cm" y="0cm" viewBox="0 0 3.15 0.315" enable-background="new 0 0 3.15 0.315" xml:space="preserve"><path d="M0.7233823,-0.2400628 L0.5533823,-0.2400628 0.2233823,-0.2400628 0.0933823,-0.2400628 -0.0966177,-0.2400628 -2.1966177,-0.2400628 -2.1966177,-0.5550628 -0.0966177,-0.5550628 -0.0966177,-0.5260215 0.0933823,-0.5260215 0.0933823,-0.5550628 0.2233823,-0.5550628 0.2233823,-0.5550628 0.2334928,-0.5401553 0.2436146,-0.526043 0.2537478,-0.5127316 0.2638925,-0.5002301 0.2740489,-0.4885514 0.2842172,-0.4777112 0.2943977,-0.4677282 0.3045907,-0.4586232 0.3147965,-0.4504192 0.3250155,-0.44314 0.335248,-0.4368102 0.3454943,-0.4314538 0.3557548,-0.4270935 0.3660297,-0.4237497 0.3763194,-0.4214392 0.3866239,-0.4201738 0.3969433,-0.4199586 0.4072777,-0.4207915 0.4176268,-0.4226633 0.4279905,-0.4255595 0.4383685,-0.4294615 0.4487605,-0.434348 0.4591661,-0.4401958 0.4695851,-0.4469812 0.4800172,-0.4546807 0.4904618,-0.463272 0.5009189,-0.4727342 0.5113881,-0.4830488 0.5218692,-0.4942 0.532362,-0.5061749 0.5428664,-0.5189644 0.5533823,-0.5325628 0.6533823,-0.5325628 0.9533823,-0.2900628 0.9533823,-0.2400628 0.6533823,-0.2400628" transform="matrix(1,0,0,-1,2.1966177,-0.2400628)" stroke="rgb(100,100,100)" stroke-width="0.0010cm" stroke-linecap="round" stroke-linejoin="round" fill="none" shaper:cutDepth="0" /></svg>