0
SECTION
2
HEADER
9
$INSUNITS
70
4
9
$ACADVER
1
AC1014
9
$HANDSEED
5
FFFF
0
ENDSEC
0
SECTION
2
TABLES
0
TABLE
2
VPORT
5
8
100
AcDbSymbolTable
0
ENDTAB
0
TABLE
2
LTYPE
5
5
100
AcDbSymbolTable
0
LTYPE
5
14
100
AcDbSymbolTableRecord
100
AcDbLinetypeTableRecord
2
BYBLOCK
70
0
0
LTYPE
5
15
100
AcDbSymbolTableRecord
100
AcDbLinetypeTableRecord
2
BYLAYER
70
0
0
ENDTAB
0
TABLE
2
LAYER
5
2
100
AcDbSymbolTable
70
2
0
LAYER
5
50
100
AcDbSymbolTableRecord
100
AcDbLayerTableRecord
2
0
70
0
6
CONTINUOUS
0
ENDTAB
0
TABLE
2
STYLE
5
3
100
AcDbSymbolTable
70
1
0
STYLE
5
11
100
AcDbSymbolTableRecord
100
AcDbTextStyleTableRecord
2
STANDARD
70
0
0
ENDTAB
0
TABLE
2
VIEW
5
6
100
AcDbSymbolTable
70
0
0
ENDTAB
0
TABLE
2
UCS
5
7
100
AcDbSymbolTable
70
0
0
ENDTAB
0
TABLE
2
APPID
5
9
100
AcDbSymbolTable
70
2
0
APPID
5
12
100
AcDbSymbolTableRecord
100
AcDbRegAppTableRecord
2
ACAD
70
0
0
ENDTAB
0
TABLE
2
DIMSTYLE
5
A
100
AcDbSymbolTable
70
1
0
ENDTAB
0
TABLE
2
BLOCK_RECORD
5
1
100
AcDbSymbolTable
70
1
0
BLOCK_RECORD
5
1F
100
AcDbSymbolTableRecord
100
AcDbBlockTableRecord
2
*MODEL_SPACE
0
BLOCK_RECORD
5
1B
100
AcDbSymbolTableRecord
100
AcDbBlockTableRecord
2
*PAPER_SPACE
0
ENDTAB
0
ENDSEC
0
SECTION
2
BLOCKS
0
BLOCK
5
20
100
AcDbEntity
100
AcDbBlockBegin
2
*MODEL_SPACE
0
ENDBLK
5
21
100
AcDbEntity
100
AcDbBlockEnd
0
BLOCK
5
1C
100
AcDbEntity
100
AcDbBlockBegin
2
*PAPER_SPACE
0
ENDBLK
5
1D
100
AcDbEntity
100
AcDbBlockEnd
0
ENDSEC
0
SECTION
2
ENTITIES
0
LINE
5
100
100
AcDbEntity
8
0
100
AcDbLine
10
0.9338231082551216
20
-2.4006277033535617
30
0
11
-0.9661768917448782
21
-2.4006277033535617
31
0
0
LINE
5
101
100
AcDbEntity
8
0
100
AcDbLine
10
-0.9661768917448782
20
-2.4006277033535617
30
0
11
-21.96617689174488
21
-2.4006277033535617
31
0
0
LINE
5
102
100
AcDbEntity
8
0
100
AcDbLine
10
-21.96617689174488
20
-2.4006277033535617
30
0
11
-21.96617689174488
21
-5.5506277033535607
31
0
0
LINE
5
103
100
AcDbEntity
8
0
100
AcDbLine
10
-21.96617689174488
20
-5.5506277033535607
30
0
11
-0.9661768917448782
21
-5.5506277033535607
31
0
0
LINE
5
104
100
AcDbEntity
8
0
100
AcDbLine
10
-0.9661768917448782
20
-5.2602154168720645
30
0
11
-0.9661768917448782
21
-5.5506277033535607
31
0
0
LINE
5
105
100
AcDbEntity
8
0
100
AcDbLine
10
-0.9661768917448782
20
-5.2602154168720645
30
0
11
0.9338231082551216
21
-5.2602154168720645
31
0
0
LINE
5
106
100
AcDbEntity
8
0
100
AcDbLine
10
0.9338231082551216
20
-5.2602154168720645
30
0
11
0.9338231082551216
21
-5.5506277033535607
31
0
0
LINE
5
107
100
AcDbEntity
8
0
100
AcDbLine
10
2.2338231082551214
20
-5.5506277033535607
30
0
11
0.9338231082551216
21
-5.5506277033535607
31
0
0
SPLINE
5
108
100
AcDbEntity
8
0
100
AcDbSpline
70
4
71
5
72
21
73
15
74
0
42
0.000000001
43
0.0000000001
44
0.0000000001
40
0
40
0
40
0
40
0
40
0
40
0
40
0.10000000000000001
40
0.20000000000000001
40
0.30000000000000004
40
0.40000000000000002
40
0.5
40
0.59999999999999998
40
0.69999999999999996
40
0.79999999999999993
40
0.89999999999999991
40
1
40
1
40
1
40
1
40
1
40
1
41
1
41
1
41
1
41
1
41
1
41
1
41
1
41
1
41
1
41
1
41
1
41
1
41
1
41
1
41
1
10
2.2338231082551214
20
-5.5506277033535607
30
0
10
2.2984940881235638
20
-5.4526812992246798
30
0
10
2.4279515364106379
20
-5.2649087514992852
30
0
10
2.6224841611379994
20
-5.0076097725704063
30
0
10
2.8825654137674683
20
-4.7140738029405469
30
0
10
3.2089211899455967
20
-4.4353402033482796
30
0
10
3.5366451870434918
20
-4.2528093037386787
30
0
10
3.8658521028741033
20
-4.1745457661724181
30
0
10
4.1966100138628217
20
-4.2053361977575987
30
0
10
4.5288645584110467
20
-4.341358311873118
30
0
10
4.8625056842150087
20
-4.5748740827603109
30
0
10
5.1304383123060502
20
-4.8333860372705635
30
0
10
5.331925139480596
20
-5.0650527235027933
30
0
10
5.4664846282446362
20
-5.2360161536887251
30
0
10
5.5338231082551248
20
-5.3256277033535611
30
0
0
LINE
5
109
100
AcDbEntity
8
0
100
AcDbLine
10
0.9338231082551216
20
-2.4006277033535617
30
0
11
2.2338231082551214
21
-2.4006277033535617
31
0
0
LINE
5
110
100
AcDbEntity
8
0
100
AcDbLine
10
5.5338231082551248
20
-2.4006277033535617
30
0
11
2.2338231082551214
21
-2.4006277033535617
31
0
0
LINE
5
111
100
AcDbEntity
8
0
100
AcDbLine
10
5.5338231082551248
20
-2.4006277033535617
30
0
11
7.233823108255125
21
-2.4006277033535617
31
0
0
LINE
5
112
100
AcDbEntity
8
0
100
AcDbLine
10
6.5338231082551248
20
-2.4006277033535617
30
0
11
9.5338231082551257
21
-2.4006277033535617
31
0
0
LINE
5
113
100
AcDbEntity
8
0
100
AcDbLine
10
6.5338231082551248
20
-5.3256277033535611
30
0
11
9.5338231082551257
21
-2.9006277033535612
31
0
0
LINE
5
114
100
AcDbEntity
8
0
100
AcDbLine
10
6.5338231082551248
20
-5.3256277033535611
30
0
11
5.5338231082551248
21
-5.3256277033535611
31
0
0
LINE
5
115
100
AcDbEntity
8
0
100
AcDbLine
10
9.5338231082551257
20
-2.4006277033535617
30
0
11
9.5338231082551257
21
-2.9006277033535612
31
0
0
ENDSEC
0
SECTION
2
OBJECTS
0
DICTIONARY
5
C
100
AcDbDictionary
3
ACAD_GROUP
350
D
3
ACAD_MLINESTYLE
350
17
0
DICTIONARY
5
D
100
AcDbDictionary
0
DICTIONARY
5
1A
330
C
100
AcDbDictionary
0
DICTIONARY
5
17
100
AcDbDictionary
0
ENDSEC
0
EOF
